<?xml version="1.0" encoding="utf-8"?>
<!-- Svg Vector Icons : http://www.onlinewebfonts.com/icon -->
<!DOCTYPE svg PUBLIC "-//W3C//DTD SVG 1.1//EN" "http://www.w3.org/Graphics/SVG/1.1/DTD/svg11.dtd">
<svg version="1.1" xmlns="http://www.w3.org/2000/svg" xmlns:xlink="http://www.w3.org/1999/xlink" x="0px" y="0px" viewBox="0 0 1000 1000" enable-background="new 0 0 1000 1000" xml:space="preserve">
<metadata> Svg Vector Icons : http://www.onlinewebfonts.com/icon </metadata>
<g><g transform="translate(0.000000,511.000000) scale(0.100000,-0.100000)"><path d="M4386.5,4982.3c-639.6-128.7-1119.3-577.2-1300.6-1214.8c-19.5-72.2-35.1-230.1-42.9-450.4l-11.7-339.3l-169.7-33.2c-403.6-81.9-801.4-243.7-961.3-393.9c-319.8-292.5-175.5-624,368.5-846.3l157.9-64.3l13.7-126.7c13.6-136.5,64.3-267.2,142.3-370.5l50.7-66.3l-60.4-85.8c-76-109.2-93.6-214.5-74.1-454.3c27.3-349,138.4-655.2,298.3-826.8c58.5-62.4,87.7-113.1,97.5-167.7c56.5-331.5,249.6-879.4,452.4-1285c91.6-183.3,109.2-234,117-356.9l11.7-142.3l-76,31.2c-113.1,46.8-302.3,29.2-464.1-46.8c-234-109.2-475.8-331.5-577.2-530.4c-31.2-60.4-56.5-79.9-157.9-117c-306.1-111.2-766.3-372.4-1021.8-579.2c-218.4-177.4-290.5-429-187.2-659.1c107.2-241.8,204.7-286.7,875.5-399.7c1659.4-276.9,3586-323.7,5327.4-124.8c643.5,72.1,1468.3,214.5,1575.6,269.1c185.2,95.5,284.7,261.3,284.7,469.9c0,167.7-44.9,276.9-163.8,393.9c-198.9,195-645.4,466-990.6,602.5c-191.1,76.1-193,76.1-249.6,183.3c-80,154.1-319.8,388-475.8,464.1c-165.7,81.9-317.8,109.2-458.2,83.9c-58.5-11.7-124.8-29.2-144.3-41c-21.5-9.7-44.9-19.5-52.6-19.5c-7.8,0-7.8,70.2-2,156c9.7,126.8,25.4,181.3,87.8,306.2c210.6,417.3,397.8,924.3,464.1,1253.8c29.3,146.3,42.9,177.5,117,261.3c99.5,109.2,183.3,274.9,241.8,479.7c56.6,197,76.1,670.8,33.2,793.7c-27.3,78-25.4,87.7,17.5,175.5c62.4,126.7,89.7,284.7,68.2,411.4l-15.6,103.4l177.5,89.7c505,261.3,538.2,618.1,81.9,891.1c-179.4,107.3-598.6,253.5-791.7,273l-48.7,5.9l-11.7,358.8c-7.8,239.8-21.5,395.8-42.9,470c-185.3,653.2-686.4,1105.6-1347.4,1222.6C5383,5021.3,4544.5,5013.5,4386.5,4982.3z M5624.8,4652.8c493.3-140.4,861.9-528.4,973.1-1019.8c23.4-109.2,31.2-249.6,31.2-627.9c0-444.6-3.9-489.4-35.1-507c-40.9-21.5-442.6-89.7-735.1-122.9c-288.6-33.1-1429.3-33.1-1716,0c-312,37.1-715.7,103.4-754.7,122.9c-31.2,17.5-35.1,62.4-35.1,507c0,559.6,17.5,674.7,136.5,924.3c187.2,388,544,663,965.2,742.9C4659.5,4711.3,5466.8,4697.6,5624.8,4652.8z M3041,2554.6c0-222.3,128.7-347.1,413.4-399.7c945.7-173.5,2146.9-177.5,3036.1-7.8c113.1,21.5,226.2,50.7,253.5,66.3c111.1,56.5,196.9,197,196.9,321.7c0,95.6,9.8,97.5,243.8,29.3c308.1-89.7,546-210.6,596.7-304.2c29.2-56.5-33.1-120.9-196.9-202.8c-1021.8-510.9-3911.7-553.8-5157.7-76c-202.8,80-329.5,154-362.7,216.5c-21.5,39-17.5,52.6,23.4,95.5c99.4,105.3,352.9,216.5,709.8,310C3048.8,2669.6,3041,2669.6,3041,2554.6z M7233.5,1480.1c0-111.1-60.4-243.8-118.9-261.3c-19.5-5.8-122.9-23.4-230.1-37c-230.1-29.2-275-56.5-275-169.7c0-56.5,11.7-81.9,54.6-115c48.8-39,66.3-42.9,218.4-29.3c91.7,5.8,193.1,13.7,224.3,15.6l58.5,3.9l-1.9-234C7159.4,290.6,7058-3.8,6898.1-115c-89.7-62.4-91.7-70.2-124.8-275c-48.8-315.9-198.9-744.9-411.5-1181.7c-89.7-185.3-124.8-236-218.4-314c-234-202.8-481.6-370.5-723.5-493.3c-118.9-60.4-130.7-62.4-220.3-40.9c-126.8,29.2-261.3,27.3-366.6-3.9c-70.2-21.4-103.3-21.4-165.7-3.9c-173.5,52.7-427,214.5-760.5,487.5c-187.2,154.1-191.1,159.9-292.5,370.5c-214.5,448.5-360.7,873.6-405.6,1175.8l-25.4,181.4l-109.2,101.4c-154.1,144.3-236,356.9-261.3,674.7c-21.4,288.6,17.6,321.7,354.9,315.9c195-3.9,220.3,0,269.1,37c41,33.2,52.7,58.5,52.7,119c0,126.7-44.8,154-249.6,154c-191.1,0-288.6,35.1-380.2,132.6c-48.8,50.7-119,196.9-101.4,214.5c2,2,113.1-15.6,245.7-42.9c883.3-173.5,2139.1-212.5,3176.5-97.5c282.8,31.2,746.8,109.2,906.7,152.1C7235.5,1589.4,7233.5,1591.3,7233.5,1480.1z M3977-2398.4c230.1-169.7,518.7-319.8,674.7-352.9c105.3-21.5,132.6-19.5,234,11.7c101.4,31.2,124.8,33.2,222.3,9.8c183.3-44.9,247.7-37.1,438.8,58.5c95.6,46.8,282.8,158,413.4,245.7l237.9,159.9l13.7-72.1c7.8-39,25.4-103.4,39-142.4l25.3-72.1l-179.4-115c-471.9-306.2-725.4-401.7-1076.4-401.7c-349-2-575.2,78-1033.5,364.6c-286.7,179.4-269.1,158-232,312c17.5,72.2,33.1,130.7,35.1,130.7C3791.8-2261.9,3875.6-2324.3,3977-2398.4z M3329.6-2593.4c142.4-165.8,421.2-358.8,826.8-575.3l195-103.3l-60.5-41c-177.5-126.7-417.3-185.2-655.2-156c-117,13.7-191.1,42.9-526.5,210.6c-214.5,109.2-415.3,216.4-444.6,239.8l-54.6,44.8l74.1,107.3c122.8,175.5,395.8,364.6,532.3,368.6C3232.1-2495.9,3282.8-2538.8,3329.6-2593.4z M7013.2-2562.2c56.5-27.3,140.4-83.9,189.1-128.7c95.5-87.8,206.7-247.7,206.7-298.3c0-68.2-505-343.2-830.7-454.3c-134.6-44.9-175.5-50.7-329.6-41c-193,9.8-323.7,50.7-477.8,150.2l-97.5,62.4l165.8,85.8c368.6,189.2,795.6,487.5,877.5,612.3c33.1,48.8,50.7,58.5,117,58.5C6876.7-2515.4,6956.6-2536.8,7013.2-2562.2z M2493.1-3285.6c206.7-134.6,713.7-390,889.2-450.4c132.6-44.9,189.2-52.7,370.5-54.6c310,0,470,54.6,832.7,286.7c89.7,56.6,171.6,109.2,185.2,117c15.6,9.8,21.4-40.9,21.4-195c-1.9-144.3,11.7-276.9,40.9-419.2c25.4-122.9,41-257.4,37.1-331.5l-5.8-122.9l-243.7-5.8c-752.7-19.5-2332.2,136.5-3141.4,310c-140.4,31.2-212.5,103.4-212.5,212.6c0,44.8,7.8,95.6,19.5,115.1c25.3,48.8,271,234,458.2,345.1c159.9,95.6,546,278.9,588.9,280.8C2346.8-3197.9,2419-3236.9,2493.1-3285.6z M7968.7-3314.9c397.8-191.1,750.7-446.6,776.1-563.6c17.5-78-33.2-187.2-103.3-224.2c-124.8-64.3-1121.2-218.4-1827.1-282.7c-526.5-48.8-1072.5-79.9-1388.4-79.9H5188v161.8c0,87.8-19.5,245.7-41,353c-37,185.2-50.7,425.1-27.3,512.8c23.4,81.9,101.4,70.2,290.5-48.8c446.6-276.9,592.8-325.7,941.8-312c146.3,5.8,245.7,21.4,335.4,52.6c224.3,76,742.9,345.1,867.8,448.5c64.3,52.6,128.7,97.5,144.3,97.5C7713.2-3197.9,7834.1-3250.6,7968.7-3314.9z"/><path d="M3865.9,875.6c-128.7-48.8-259.3-185.2-259.3-271c0-78,76-156,154-156c37,0,85.8,23.4,138.5,68.2c44.8,37.1,103.3,74.1,130.6,80c91.6,23.4,257.4-7.8,370.5-68.3c134.5-74.1,206.7-76,269.1-11.7c89.7,87.8,54.6,189.2-93.6,278.8C4365.1,920.5,4068.7,953.6,3865.9,875.6z"/><path d="M5459,787.9c-185.2-35.1-253.5-165.8-144.3-275c44.8-44.8,60.4-48.7,185.2-40.9l134.5,7.8v-66.3c0-124.8,154.1-204.8,271.1-140.4c44.8,23.4,87.8,124.8,72.2,167.7c-9.8,27.3,5.8,29.2,142.3,15.6c148.2-11.7,156-9.7,204.8,37.1c97.5,97.5,48.7,234-95.6,269.1C6143.5,782.1,5537,803.5,5459,787.9z"/><path d="M4045.3,516.9c-103.3-101.4-29.3-263.2,120.9-263.2c93.6,0,156,40.9,171.6,115c13.7,64.4-29.2,165.8-78,185.3C4187.6,581.2,4092.1,565.6,4045.3,516.9z"/><path d="M4686.8-700c-78-46.8-126.8-117-193-275c-29.2-70.2-74.1-154-99.5-189.2c-64.3-85.8-62.4-185.2,3.9-237.9c115-89.7,237.9-19.5,341.3,198.9c29.2,62.4,56.5,105.3,62.4,97.5c3.9-7.8,23.4-60.4,41-117c41-122.8,72.2-152.1,167.7-152.1c95.6,0,128.7,31.2,169.7,158c17.6,58.5,37.1,105.3,44.8,105.3c5.8,0,35.1-56.5,66.3-126.7c31.2-70.2,78-144.3,105.3-165.7c148.2-117,321.8,52.6,224.3,218.4c-21.4,35.1-66.3,134.6-101.4,222.3c-78,196.9-158,280.8-280.8,294.4c-76.1,9.7-93.6,3.9-159.9-54.6c-62.4-54.6-76.1-60.5-95.6-35.1C4911.1-660.9,4788.2-637.6,4686.8-700z"/></g></g>
</svg>