<svg width="512" height="512" viewBox="0 0 512 512" fill="none" xmlns="http://www.w3.org/2000/svg">
<path d="M256 512C114.84 512 0 397.16 0 256C0 114.84 114.84 0 256 0C397.16 0 512 114.84 512 256C512 397.16 397.16 512 256 512ZM256 36.5703C135.008 36.5703 36.5703 135.008 36.5703 256C36.5703 376.992 135.008 475.43 256 475.43C376.992 475.43 475.43 376.992 475.43 256C475.43 135.008 376.992 36.5703 256 36.5703Z" fill="#FF3962"/>
<path d="M347.429 365.715C342.749 365.715 338.069 363.93 334.499 360.355L151.644 177.5C144.499 170.355 144.499 158.785 151.644 151.645C158.784 144.504 170.358 144.5 177.499 151.645L360.354 334.5C367.499 341.645 367.499 353.215 360.354 360.355C356.784 363.93 352.108 365.715 347.429 365.715V365.715Z" fill="#FF3962"/>
<path d="M164.569 365.715C159.89 365.715 155.214 363.93 151.644 360.355C144.499 353.215 144.499 341.641 151.644 334.5L334.499 151.645C341.644 144.5 353.214 144.5 360.354 151.645C367.495 158.785 367.499 170.359 360.354 177.5L177.499 360.355C173.929 363.93 169.249 365.715 164.569 365.715V365.715Z" fill="#FF3962"/>
</svg>
