<svg xmlns="http://www.w3.org/2000/svg" xmlns:xlink="http://www.w3.org/1999/xlink" version="1.1" x="0px" y="0px" viewBox="0 0 98 122.5" style="enable-background:new 0 0 98 98;" xml:space="preserve"><g><path style="fill:#fff;" d="M40.8,38.9c-1.1,0-2,0.9-2,2V68c0,1.1,0.9,2,2,2s2-0.9,2-2V40.9C42.8,39.8,41.9,38.9,40.8,38.9z"/><path style="fill:#fff;" d="M57.2,38.9c-1.1,0-2,0.9-2,2V68c0,1.1,0.9,2,2,2s2-0.9,2-2V40.9C59.2,39.8,58.3,38.9,57.2,38.9z"/><path style="fill:#fff;" d="M57.8,13.2H40.2c-3.9,0-7,3.1-7,7c0,0,0,0,0,0v3.9H14.9c-1.1,0-2,0.9-2,2s0.9,2,2,2h6.3l3.2,50.1c0.2,3.7,3.3,6.6,7,6.6   h35.2c3.7,0,6.8-2.9,7-6.6l3.2-50.1h6.3c1.1,0,2-0.9,2-2s-0.9-2-2-2H64.8v-3.9C64.8,16.3,61.7,13.2,57.8,13.2L57.8,13.2z    M37.2,20.2c0-1.7,1.3-3,3-3h17.6c1.7,0,3,1.3,3,3v3.9H37.2L37.2,20.2z M69.6,78c-0.1,1.6-1.4,2.8-3,2.8H31.4c-1.6,0-2.9-1.2-3-2.8   l-3.2-49.9h47.6L69.6,78z"/></g></svg>