<svg xmlns="http://www.w3.org/2000/svg" data-name="Layer 1" viewBox="0 0 32 40" x="0px" y="0px"><path style="fill:#fff;" d="M3.5,32h21A3.5,3.5,0,0,0,28,28.5V17H26V28.5A1.5,1.5,0,0,1,24.5,30H3.5A1.5,1.5,0,0,1,2,28.5v-21A1.5,1.5,0,0,1,3.5,6H15V4H3.5A3.5,3.5,0,0,0,0,7.49v21A3.5,3.5,0,0,0,3.5,32Z"/><path style="fill:#fff;" d="M30.42.85a3.06,3.06,0,0,0-4.23,0L12.47,14.56a3.53,3.53,0,0,0-.84,1.37l-1.58,4.72A1,1,0,0,0,11,22a1.19,1.19,0,0,0,.32,0L16,20.34a3.53,3.53,0,0,0,1.37-.84L31.12,5.79a3,3,0,0,0,0-4.24Zm-.71,3.52L16,18.09a1.58,1.58,0,0,1-.58.36l-2.83.94.94-2.83h0a1.58,1.58,0,0,1,.36-.58L27.6,2.26A1,1,0,0,1,28.3,2a1,1,0,0,1,.7.29l.71.71a1,1,0,0,1,.29.7A1,1,0,0,1,29.71,4.37Z"/></svg>