<svg width="484" height="484" viewBox="0 0 484 484" fill="none" xmlns="http://www.w3.org/2000/svg">
<path d="M416.649 33.2345C392.254 8.88293 352.75 8.88293 328.356 33.2345L306.254 55.4572L70.9846 290.602L70.4846 291.106C70.3635 291.227 70.3635 291.356 70.2346 291.356C69.9846 291.731 69.6096 292.102 69.3635 292.477C69.3635 292.602 69.2346 292.602 69.2346 292.727C68.9846 293.102 68.8635 293.352 68.6096 293.727C68.4885 293.852 68.4885 293.973 68.3635 294.102C68.2385 294.477 68.1135 294.727 67.9846 295.102C67.9846 295.223 67.8635 295.223 67.8635 295.352L15.6643 452.32C14.133 456.789 15.2971 461.738 18.6604 465.055C21.0237 467.387 24.2112 468.692 27.5276 468.68C28.883 468.656 30.2268 468.445 31.5237 468.055L188.371 415.731C188.492 415.731 188.492 415.731 188.621 415.609C189.016 415.492 189.395 415.324 189.742 415.106C189.84 415.094 189.926 415.051 189.996 414.984C190.367 414.734 190.867 414.481 191.242 414.231C191.614 413.984 191.992 413.609 192.367 413.359C192.492 413.231 192.614 413.231 192.614 413.109C192.742 412.984 192.992 412.863 193.117 412.609L450.488 155.238C474.84 130.844 474.84 91.34 450.488 66.9493L416.649 33.2345ZM184.375 386.383L97.4612 299.473L314.996 81.9376L401.91 168.848L184.375 386.383ZM85.219 322.574L161.149 398.5L47.133 436.461L85.219 322.574ZM432.883 137.754L419.645 151.117L332.727 64.1993L346.094 50.84C360.715 36.2306 384.414 36.2306 399.039 50.84L433.004 84.8048C447.516 99.4923 447.461 123.137 432.883 137.754Z" fill="#00D971"/>
</svg>
