<?xml version="1.0" encoding="utf-8"?>
<!-- Svg Vector Icons : http://www.onlinewebfonts.com/icon -->
<!DOCTYPE svg PUBLIC "-//W3C//DTD SVG 1.1//EN" "http://www.w3.org/Graphics/SVG/1.1/DTD/svg11.dtd">
<svg version="1.1" xmlns="http://www.w3.org/2000/svg" xmlns:xlink="http://www.w3.org/1999/xlink" x="0px" y="0px" viewBox="0 0 1000 1000" enable-background="new 0 0 1000 1000" xml:space="preserve">
<metadata> Svg Vector Icons : http://www.onlinewebfonts.com/icon </metadata>
<g><g transform="translate(0.000000,511.000000) scale(0.100000,-0.100000)"><path d="M4114.9,4966.7c-281.3-48.3-858.2-196.1-1042.9-270c-159.1-62.5-1150.9-676.3-1392.4-861c-196.1-150.6-352.4-335.3-574-673.5C722,2579.7,619.7,2204.6,579.9,1272.5c-17.1-341-8.5-488.8,31.3-724.6C707.7-31.8,932.2-557.5,1350-1185.5c383.6-576.8,645.1-826.9,1108.2-1059.9c292.7-145,596.7-233,1318.5-378c778.6-159.1,1236.1-190.4,1625.4-113.7c309.7,62.5,772.9,289.8,1133.8,556.9c147.8,108,395,287,545.6,397.8c414.9,298.4,602.4,537.1,1014.5,1264.5l122.2,221.7l108-267.1c56.8-147.7,159.1-386.4,224.5-534.2c238.7-537.1,358-1145.2,287-1477.7l-36.9-173.3L8528-2893.3c-150.6-82.4-508.6-289.8-798.5-460.3c-1000.3-596.7-1440.7-741.7-2486.4-812.8c-471.7-34.1-983.2-5.7-1270.2,68.2c-207.4,54-795.7,309.8-1159.4,503c-409.2,216-721.8,434.7-957.6,664.9c-116.5,116.5-233,210.3-258.6,210.3c-59.7,0-144.9-59.7-514.3-366.6c-156.3-130.7-287-250.1-287-267.1c0-62.6,315.4-409.2,525.7-576.9c508.6-409.2,1185-665,2117-795.7c409.2-59.7,1670.9-85.3,2031.8-42.6c636.5,73.9,1213.4,250.1,1790.2,542.7c821.2,414.9,1292.9,809.9,1580,1321.4c51.2,93.8,127.9,196.1,167.7,227.3c321.1,250.1,449,588.3,414.9,1094c-39.8,616.7-287,1284.5-713.2,1935.2l-159.1,238.7l-8.6,412c-8.5,406.3-11.3,417.7-142.1,807c-261.4,784.3-755.9,1628.3-1250.3,2145.4C6391,4747.9,5189,5148.5,4114.9,4966.7z M5172,4853c463.2-76.7,974.7-275.6,1383.9-542.8c272.8-179,707.6-639.4,960.5-1017.3c326.8-494.4,633.7-1119.6,767.2-1565.8c93.8-315.4,110.8-417.7,122.2-696.2c14.2-494.4-90.9-866.7-414.9-1435.1c-511.5-898-537.1-929.2-1227.6-1449.2c-585.4-440.4-835.5-591-1165.1-707.6c-233-85.2-258.6-88.1-696.2-85.2c-429.1,0-491.6,8.5-1108.2,136.4c-946.3,196.1-1199.2,284.2-1562.9,542.7C1699.5-1589,1057.3-620,838.5,135.9c-130.7,457.5-156.3,824.1-96.6,1463.4c65.4,730.3,173.3,1042.9,542.8,1582.8c284.2,412,483.1,585.4,1162.2,1008.8c713.3,440.5,684.8,429.1,1065.6,522.9C4251.3,4895.6,4677.5,4932.6,5172,4853z M8553.6,346.1c0-14.2-19.9-25.6-42.6-25.6c-42.6,0-56.8,34.1-25.6,65.4C8508.1,408.7,8553.6,383.1,8553.6,346.1z M8698.5,113.1c25.6-45.5,22.8-62.5-14.2-82.4c-39.8-22.8-39.8-34.1,5.7-125c36.9-79.6,59.7-99.5,110.8-88.1c71,14.2,116.5-62.5,59.7-96.6c-39.8-25.6,17.1-110.8,76.7-110.8c45.4,0,79.6-119.3,39.8-144.9c-48.3-28.4,5.7-170.5,73.9-201.7c85.2-37,110.8-136.4,51.1-179c-56.8-42.6-25.6-147.8,51.1-170.5c28.4-11.4,54-25.6,54-36.9c0-11.4,8.5-48.3,17.1-82.4c14.2-54,5.7-65.4-45.5-65.4c-39.8,0-56.8-14.2-48.3-36.9c8.5-25.6-14.2-34.1-82.4-25.6c-110.8,14.2-147.8-39.8-96.6-136.4c45.4-85.3,176.2-68.2,198.9,25.6l17,71l62.5-79.6c34.1-45.5,62.5-110.8,62.5-147.8c0-59.7-11.4-65.4-85.3-48.3c-51.1,8.5-85.2,2.8-85.2-14.2c0-45.5,82.4-119.4,133.6-119.4c36.9,0,42.6-28.4,28.4-187.5c-14.2-201.8-139.3-497.3-250.1-596.8l-62.5-54l17,105.2c8.5,59.7,2.9,113.7-11.3,122.2c-45.5,28.4-28.4,99.5,25.6,99.5c65.4,0,119.4,54,119.4,116.5c0,31.3-31.2,54-99.5,65.4c-79.6,17-99.5,31.3-99.5,85.2c0,127.9-144.9,574-318.3,969c-181.8,420.6-298.4,730.3-306.9,824.1c-14.2,125,0,136.4,71,59.7c85.2-90.9,173.3-96.6,201.7-11.3c22.8,71-71,164.8-162,164.8c-65.4,0-65.4-2.8-14.2,119.4c39.8,90.9,48.3,93.8,156.3,85.3C8633.1,175.6,8678.6,155.8,8698.5,113.1z M1705.2-2964.4c130.7-130.7,142.1-150.6,79.6-127.9c-96.6,37-105.1,0-22.7-82.4c59.7-59.7,170.5-76.7,170.5-25.6c0,14.2,79.6-28.4,179-96.6c284.2-201.8,613.8-380.8,1133.8-613.8c369.4-164.8,488.8-230.2,494.4-272.8c8.5-65.3,110.8-156.3,170.5-156.3c59.7,0,79.6,79.6,36.9,133.6c-36.9,42.6-31.3,45.5,31.3,28.4c39.8-11.4,85.2-19.9,102.3-19.9c17.1,0,51.1-45.5,76.7-102.3c37-76.7,62.5-99.5,113.7-90.9c48.3,5.7,62.5,28.4,62.5,88.1l-2.8,76.7h434.8c241.5,0,559.8,14.2,710.4,31.3c241.5,25.6,275.6,25.6,298.4-14.2c39.8-68.2,142.1-159.1,181.8-159.1c19.9,0,45.5,28.4,56.8,62.5c14.2,45.4,2.9,73.9-42.6,110.8c-56.8,48.3-56.8,48.3,42.6,68.2c56.8,8.5,105.2,14.2,108,8.5c71-153.5,96.6-179,173.4-179c71,0,85.2,11.4,93.8,79.6c8.5,62.5-2.8,85.3-48.3,96.6c-34.1,8.5-59.7,22.7-59.7,34.1c0,8.6,110.8,51.2,250,96.6c318.3,99.5,798.5,332.5,1173.6,568.3c162,99.5,369.4,224.5,460.4,275.6c150.6,82.4,167.7,88.1,198.9,45.5c19.9-25.6,73.9-56.8,119.3-68.2l85.3-22.8L8349-3413.4c-213.1-218.8-218.8-221.6-281.3-176.2c-71,48.3-196.1,62.5-196.1,19.9c0-11.3,25.6-56.8,56.8-93.8l56.8-73.9l-113.7-73.9l-110.8-71l-8.5,62.5c-5.7,51.1-34.1,65.3-136.4,79.6c-71,11.3-156.3,28.4-190.4,39.8c-48.3,17.1-65.4,8.5-65.4-25.6c0-45.5,176.2-173.4,272.8-193.2c45.5-8.5,39.8-19.9-45.4-73.9c-99.5-62.5-99.5-62.5-108-5.7c-8.5,45.4-31.3,56.8-122.2,56.8c-59.7,0-110.8-11.4-110.8-25.6c0-42.6,85.2-116.5,136.4-116.5c25.6-2.8-22.7-39.8-108-82.4c-127.9-68.2-159.1-73.9-184.7-42.6c-34.1,45.5-213.1,88.1-213.1,48.3c0-11.4,19.9-54,45.5-88.1c54-76.8,54-76.8-82.4-133.6c-99.5-42.6-105.1-39.8-105.1,14.2c0,59.7-108,105.2-184.7,73.9c-56.8-19.9-54-62.5,11.4-127.9c54-53.9,51.1-53.9-136.4-110.8c-497.3-156.3-829.8-204.6-1378.2-204.6c-363.8,0-366.6,0-315.4,56.8c68.2,76.8,36.9,142.1-71,142.1c-102.3,0-133.6-54-85.2-144.9l34.1-62.5l-363.7,19.9c-713.3,39.8-1679.4,207.5-1605.5,281.3c45.5,45.5,36.9,153.5-14.2,173.3c-71,28.4-181.9,19.9-181.9-14.2c0-17,14.2-54,31.3-88.1c28.4-51.2,22.7-54-37-37c-34.1,11.4-116.5,42.6-179,71l-113.7,51.2l90.9,2.8c164.8,5.7,147.8,122.2-22.7,156.3c-113.7,22.8-147.7,0-105.1-68.2c19.9-31.3,25.6-62.5,17-73.9c-25.6-25.6-363.7,164.8-596.7,335.3c-224.5,164.8-596.7,554.1-585.4,611c8.5,36.9,554.1,514.3,591.1,520C1543.2-2805.3,1619.9-2876.3,1705.2-2964.4z M8712.7-2938.8c-59.7-113.7-127.9-198.9-130.7-159.1c0,17.1-39.8,42.6-90.9,51.1l-90.9,22.8l153.5,79.6C8749.6-2845,8763.8-2845,8712.7-2938.8z"/><path d="M3404.5,4543.3c-258.6-31.3-281.3-39.8-412-147.8c-73.9-65.4-173.3-184.7-216-270c-73.9-139.2-79.6-173.3-71-372.3c31.2-554.1,520-1059.9,1059.9-1096.9c366.6-22.7,591.1,93.8,755.9,397.8c93.8,176.2,96.6,184.7,96.6,520c0,306.9-8.5,355.2-73.9,497.3c-102.3,216-201.8,326.8-375.1,409.2C3984.2,4568.8,3762.5,4588.7,3404.5,4543.3z M4183.1,4338.7c82.4-56.8,150.6-142.1,216-267.1l96.6-184.7l-252.9-19.9c-414.9-31.3-730.3-116.5-1042.9-278.5c-159.1-85.3-289.8-136.4-304.1-122.2c-42.6,42.6-79.6,304-56.8,420.6c11.4,62.5,42.6,153.4,68.2,201.8c54,108,224.5,261.4,312.6,281.3c187.5,48.3,372.3,68.2,593.9,59.7C4038.2,4423.9,4075.1,4415.4,4183.1,4338.7z M4518.4,3730.6c0-31.3-14.2-56.8-31.3-56.8c-42.6,0-233-147.8-434.8-338.1l-167.7-159.1l187.5,275.6c105.1,150.6,190.4,287,190.4,304c0,17.1,56.8,31.3,127.9,31.3C4498.5,3787.4,4518.4,3778.9,4518.4,3730.6z M4018.3,3602.7c-56.8-85.3-108-156.3-110.8-156.3c0,0-2.8,59.7-2.8,136.4c2.8,119.4,11.4,136.4,73.9,150.6C4117.7,3770.3,4120.6,3756.1,4018.3,3602.7z M3825.1,3656.7c-8.5-25.6-17.1-65.4-19.9-90.9c0-31.3-5.7-34.1-17.1-11.4c-5.7,17.1-42.6,34.1-76.7,34.1c-54,0-71-25.6-113.7-173.3c-65.4-238.7-79.6-201.8-17.1,42.6c48.3,198.9,82.4,238.7,210.3,241.5C3827.9,3702.1,3836.4,3687.9,3825.1,3656.7z M3464.2,3526c0-36.9-11.4-90.9-22.7-122.2c-19.9-45.5-25.6-36.9-37,51.1c-5.7,59.7-5.7,113.7,2.8,119.4C3438.6,3608.4,3467,3582.8,3464.2,3526z M4487.1,3497.5c-22.7-19.9-79.6-88.1-125-150.6c-136.4-193.2-250.1-298.4-318.3-298.4h-68.2l65.4,88.1c73.9,99.5,417.7,395,460.3,395C4515.6,3531.6,4509.9,3514.6,4487.1,3497.5z M3268.1,3386.7c0-116.5-56.8-338.1-88.1-338.1s-34.1-8.5,19.9,170.5c42.6,142.1,42.6,153.5-2.8,179c-39.8,22.7-42.6,31.3-11.4,51.2C3251,3491.9,3268.1,3477.6,3268.1,3386.7z M4458.7,3256c-79.6-207.4-230.2-372.2-414.9-449c-122.2-51.2-360.9-54-477.4-2.8l-85.2,36.9l88.1,45.5c48.3,25.6,96.6,36.9,105.1,28.4c11.4-8.5,37,0,59.7,19.9c25.6,17.1,59.7,28.4,79.6,19.9c19.9-5.7,56.8-2.8,79.6,11.4c25.6,11.4,122.2,31.3,213.1,39.8c93.8,11.4,181.9,31.3,198.9,45.5c14.2,17.1,11.4,25.6-8.5,25.6c-19.9,0,11.4,56.8,71,127.9c56.8,71,108,127.9,113.7,127.9C4484.3,3332.7,4475.8,3298.6,4458.7,3256z M3611.9,2954.8c-45.5-45.5-56.8-14.2-22.7,65.4c25.6,62.5,31.3,65.4,39.8,17.1C3637.5,3008.8,3629,2971.8,3611.9,2954.8z"/><path d="M5936.4,3915.3c-2.8-14.2-2.8-45.5,0-62.5c2.9-19.9-8.5-36.9-25.5-36.9c-14.2,0-28.4,14.2-28.4,28.4c0,122.2-343.8-170.5-537.1-457.5c-213.1-315.4-298.4-557-255.8-736c96.6-420.6,537.1-710.4,1074.1-710.4c119.4,0,287,19.9,372.3,45.5c85.2,25.6,201.7,51.2,255.7,59.7c68.2,8.5,110.8,34.1,127.9,73.9c17,34.1,68.2,88.1,116.5,119.4c71,45.5,93.8,90.9,133.6,255.7c25.6,108,56.8,255.8,65.4,326.8c19.9,164.8-51.1,514.3-136.4,653.6c-96.6,159.1-329.6,397.8-389.3,397.8c-28.4,0-88.1,11.4-133.5,28.4C6459.3,3938,5939.2,3952.2,5936.4,3915.3z M6223.4,3872.6c0-14.2-48.3-28.4-105.1-28.4c-79.6,0-96.6,8.5-65.4,28.4C6109.7,3909.6,6223.4,3909.6,6223.4,3872.6z M6410.9,3872.6c22.7,0,39.8-11.4,39.8-28.4c0-42.6-62.5-34.1-127.9,19.9c-51.2,39.8-51.2,42.6-5.7,25.6C6345.6,3881.2,6388.2,3872.6,6410.9,3872.6z M6649.7,3741.9c0-48.3-62.5-39.8-79.6,11.4c-5.7,19.9,8.5,34.1,34.1,34.1C6629.8,3787.4,6649.7,3767.5,6649.7,3741.9z M6518.9,3633.9c65.4-39.8,153.4-119.4,196.1-179c108-156.3,227.3-429.1,207.4-477.4c-8.5-22.7-2.8-42.6,11.4-42.6c36.9,0,144.9-360.9,125-412c-14.2-31.3-130.7,73.9-417.7,369.4c-372.3,389.3-659.3,630.9-818.4,693.4l-68.2,25.6l79.6,31.3c42.6,17.1,119.4,36.9,170.5,45.5c48.3,11.4,96.6,25.6,105.1,34.1C6143.8,3756.1,6408.1,3699.3,6518.9,3633.9z M6791.7,3653.8c0-14.2-14.2-42.6-28.4-65.3c-25.6-36.9-31.3-36.9-56.8,0c-22.7,36.9-2.8,59.7,79.6,82.4C6788.9,3673.7,6791.7,3665.2,6791.7,3653.8z M6928.1,3463.4c5.7-25.6-5.7-68.2-25.6-90.9c-31.3-36.9-39.8-34.1-71,22.7c-25.6,45.5-25.6,76.7-5.7,102.3C6865.6,3543,6916.8,3526,6928.1,3463.4z M5569.8,3483.3c0-14.2-45.5-73.9-102.3-136.4c-96.6-110.8-93.8-68.2,11.4,93.8C5518.7,3500.4,5569.8,3526,5569.8,3483.3z M5831.3,3463.4c42.6-31.3,25.6-54-170.5-204.6L5442,3091.2l139.2,170.5c76.7,93.8,144.9,187.6,150.6,204.6C5748.8,3511.7,5768.7,3511.7,5831.3,3463.4z M6013.1,3327c28.4-34.1,39.8-54,22.7-42.6c-17,8.5-105.1-28.4-198.9-82.4c-335.3-201.8-366.6-218.8-343.8-193.2c17.1,17.1,417.7,346.7,463.2,377.9C5956.3,3389.6,5981.9,3361.1,6013.1,3327z M7047.5,3236.1c0-39.8-82.4-88.1-108-59.7c-17.1,17.1,51.1,99.5,82.4,99.5C7036.1,3275.9,7047.5,3258.8,7047.5,3236.1z M6513.3,2818.4c-31.3-31.3-571.2-173.3-611-159.1c-19.9,5.7,90.9,42.6,247.2,79.6c270,65.4,355.2,116.5,270,170.5c-22.7,14.2-62.5,17.1-93.8,8.5c-31.2-11.4-45.4-5.7-34.1,11.4c8.5,14.2-2.8,42.6-25.6,62.5c-34.1,28.4-59.7,28.4-116.5,2.8c-113.7-51.2-119.3-36.9-11.3,28.4c90.9,56.8,93.8,65.4,42.6,82.4c-36.9,14.2-90.9,2.8-150.6-31.3c-113.7-65.4-488.8-227.3-488.8-210.3c0,5.7,122.2,85.2,269.9,173.3c150.6,88.1,278.5,173.3,287,187.5c11.4,17,113.7-65.4,227.3-179C6442.2,2932,6524.6,2829.7,6513.3,2818.4z M7104.3,2986c0-45.5-8.5-54-31.2-31.3c-17.1,17-22.8,45.5-14.2,62.5C7090.1,3065.6,7104.3,3054.2,7104.3,2986z M7095.8,2787.1c-8.5-22.7-17.1-14.2-17.1,17.1c-2.8,31.3,5.7,48.3,14.2,36.9C7101.5,2832.6,7104.3,2807,7095.8,2787.1z M6644,2699c8.5-42.6-14.2-48.3-198.9-45.5l-207.4,2.8l156.3,51.1C6578.6,2770.1,6632.6,2767.2,6644,2699z M5442,2630.8c108-54,358-295.5,338.1-326.8c-8.5-11.4-2.8-22.7,14.2-22.7c14.2,0,68.2-59.7,119.4-130.7l88.1-130.7l-93.8,19.9c-235.9,51.1-520,270-622.3,480.2C5189,2721.8,5214.6,2741.7,5442,2630.8z M6848.6,2477.4c0-48.3-252.9-54-596.8-17.1l-355.2,42.6l326.8,2.8c179,2.8,377.9,17.1,440.5,28.4C6771.8,2554.1,6848.6,2531.4,6848.6,2477.4z M6280.2,2338.1l156.3-19.9l-142.1-2.8c-76.7,0-204.6,8.5-284.2,22.7l-142.1,19.9l127.9,2.8C6067.1,2360.9,6195,2352.3,6280.2,2338.1z M6945.2,2284.2c-14.2-8.5-96.6-11.4-181.9,0l-156.3,17.1l127.9,5.7c71,2.8,147.8,17.1,170.5,31.3C6950.8,2366.6,6987.8,2318.2,6945.2,2284.2z M6490.5,2238.7c170.5-8.5,329.6-28.4,355.2-45.5c31.3-19.9-14.2-22.7-153.5-11.4c-108,8.5-318.3,22.7-460.4,34.1c-144.9,8.5-264.3,28.4-264.3,39.8c0,14.2,48.3,19.9,108,14.2C6132.5,2261.4,6320,2247.2,6490.5,2238.7z M6382.5,2105.1c164.8-19.9,258.6-42.6,241.6-59.7c-54-54-480.2-2.9-554.1,68.2C6033,2147.7,6055.7,2144.9,6382.5,2105.1z"/><path d="M1600,2738.8c-457.5-156.3-758.7-633.7-687.7-1085.5c28.4-173.3,162-471.7,281.3-622.3c51.1-62.5,156.3-144.9,250.1-190.4c142.1-68.2,193.2-79.6,417.7-76.7c213.1,0,284.2,14.2,414.9,73.9c204.6,93.8,352.4,244.4,454.7,460.3c184.7,392.1,173.3,770.1-34.1,1099.7C2489.5,2724.6,2000.7,2878.1,1600,2738.8z M1918.3,2520c-278.5-341-412-747.4-412-1267.4c0-170.5-8.5-306.9-19.9-306.9c-56.8,0-207.4,159.1-284.2,304.1c-193.2,360.9-216,591.1-82.4,878.1c159.1,343.8,449,534.2,835.4,548.4l90.9,2.8L1918.3,2520z M2299.1,2412c-5.7-275.6-39.8-352.4-62.5-133.6c-31.3,284.2-25.6,343.8,22.7,326.8C2290.6,2591,2301.9,2542.7,2299.1,2412z M2108.7,2227.3l11.4-181.9l-65.4,150.6c-36.9,85.2-79.6,167.7-93.8,184.7c-19.9,22.7-8.5,59.7,34.1,113.7l62.5,79.6l19.9-82.4C2088.8,2446.1,2103,2326.8,2108.7,2227.3z M2458.2,2480.2c8.5-14.2,2.8-28.4-11.4-28.4c-17.1,0-31.3,14.2-31.3,28.4c0,17.1,5.7,28.4,11.4,28.4C2435.5,2508.6,2449.7,2497.3,2458.2,2480.2z M1872.8,2221.6c-54-34.1-68.2-5.7-22.7,48.3c25.6,31.3,39.8,36.9,48.3,11.4C1906.9,2261.4,1892.7,2235.8,1872.8,2221.6z M1932.5,1911.9l119.4-241.5l-156.3,170.5c-142.1,156.3-150.6,176.2-125,250.1c14.2,42.6,31.3,76.7,34.1,71C1807.5,2156.3,1867.2,2045.5,1932.5,1911.9z M2500.8,1968.7c14.2-8.5,5.7-39.8-17.1-68.2c-36.9-51.2-39.8-45.5-36.9,71c2.9,68.2,11.4,99.5,17.1,68.2C2472.4,2008.5,2489.5,1977.2,2500.8,1968.7z M2705.4,1678.9c-31.3-204.6-105.1-380.8-218.8-520l-71-85.2v201.8c0,221.6,59.7,434.8,190.4,664.9l79.6,142.1l25.6-105.2C2728.2,1911.9,2725.3,1798.2,2705.4,1678.9z M1850.1,1764.1c122.2-147.8,122.2-147.8,25.6-73.9c-76.7,56.8-110.8,68.2-150.6,48.3c-34.1-19.9-48.3-17.1-48.3,8.5c0,42.6,31.3,164.8,42.6,164.8C1722.2,1911.9,1781.9,1843.7,1850.1,1764.1z M2353.1,1622c-28.4-76.7-34.1-79.6-76.7-39.8c-37,39.8-39.8,51.2-5.7,71c19.9,14.2,31.3,36.9,19.9,54c-8.5,17.1,5.7,22.7,36.9,14.2C2375.8,1710.1,2378.6,1695.9,2353.1,1622z M1938.2,1426c99.5-113.7,221.6-250,270-304c122.2-130.7,90.9-173.3-42.6-62.5c-207.5,173.3-468.9,369.4-491.6,369.4c-14.2,0-25.6,56.8-25.6,127.9c0,119.4,5.7,127.9,54,99.5C1733.6,1641.9,1838.7,1536.8,1938.2,1426z M2301.9,1428.8c0-14.2-5.7-28.4-11.4-28.4c-8.5,0-22.7,14.2-31.3,28.4c-8.5,17.1-2.8,28.4,11.4,28.4C2287.7,1457.2,2301.9,1445.9,2301.9,1428.8z M2273.5,1295.2c0-54-11.4-45.5-85.2,54l-65.4,88.1l73.9-54C2239.4,1354.9,2273.5,1312.3,2273.5,1295.2z M1861.5,1187.3c110.8-85.2,224.5-179,252.9-210.3c48.3-51.2,45.5-54-39.8-73.9c-102.3-22.7-142.1,5.7-233,153.4c-62.5,102.3-102.3,144.9-142.1,144.9c-45.5,0-19.9-79.6,65.4-193.2c48.3-68.2,82.4-127.9,73.9-136.4c-34.1-34.1-190.4,88.1-190.4,147.8c0,34.1-8.5,119.3-17.1,193.2c-11.4,71-8.5,130.7,2.9,130.7C1648.3,1343.6,1750.6,1272.5,1861.5,1187.3z"/><path d="M4041,2093.8c-173.3-45.5-295.6-102.3-426.3-201.8c-48.3-36.9-102.3-62.5-116.5-54c-51.2,31.3-210.3-454.7-241.5-736C3191.3,525.2,3546.6,84.7,4134.8,10.8c514.3-62.5,991.7,144.9,1185,517.2c73.9,147.8,99.5,480.3,54,707.6c-82.4,386.5-372.3,795.7-616.6,869.5C4600.8,2150.6,4228.5,2144.9,4041,2093.8z M4723,1994.3c125-25.6,176.2-56.8,295.5-181.9c210.3-213.1,278.5-400.7,278.5-784.3c2.9-284.2,0-306.9-82.4-437.6c-105.1-170.5-270-301.2-488.8-386.5c-133.6-54-221.6-65.3-466-65.3c-289.8-2.8-304.1,0-517.2,105.1c-247.2,122.2-335.3,224.5-392.2,454.7c-71,289.9,42.6,764.4,233,971.9C3839.3,1946,4311,2079.5,4723,1994.3z"/><path d="M4356.4,1707.3c-54-68.2-65.4-181.9-25.6-235.8c28.4-39.8,76.7-54,190.4-56.8c139.2,0,153.4,5.7,162,65.4c11.4,76.7-56.8,162-170.5,221.7C4418.9,1749.9,4390.5,1749.9,4356.4,1707.3z M4544,1602.2c48.3-31.3,19.9-116.5-36.9-116.5c-54,0-82.4,48.3-62.5,99.5C4461.6,1633.4,4487.1,1636.2,4544,1602.2z"/><path d="M3833.6,1545.3l-68.2-54l82.4-88.1c88.1-93.8,204.6-116.5,267.1-54c51.2,51.1,39.8,119.3-31.3,187.5C4001.2,1613.5,3918.8,1616.4,3833.6,1545.3z M3998.4,1437.3c-25.6-25.6-54-39.8-65.4-31.2c-28.4,28.4,17.1,79.6,68.2,79.6C4043.8,1485.6,4043.8,1482.8,3998.4,1437.3z"/><path d="M4717.3,1269.7c0-125,176.2-258.6,301.2-227.3c93.8,25.6,85.2,110.8-19.9,198.9C4896.3,1326.5,4717.3,1346.4,4717.3,1269.7z M4967.4,1181.6c5.7-22.7-17-36.9-62.5-36.9c-48.3,0-73.9,14.2-73.9,45.5C4831,1244.1,4947.5,1235.6,4967.4,1181.6z"/><path d="M3557.9,1053.7c-48.3-48.3-42.6-108,17-127.9c25.6-11.4,85.2-48.3,127.9-85.3c99.5-79.6,150.6-82.4,190.4-11.4c42.6,82.4,36.9,110.8-42.6,187.5C3776.7,1093.5,3617.6,1113.4,3557.9,1053.7z M3779.6,928.7c0-22.7-11.4-34.1-28.4-25.6c-14.2,8.5-28.4,28.4-28.4,45.5c0,14.2,14.2,25.6,28.4,25.6C3768.2,974.1,3779.6,954.3,3779.6,928.7z"/><path d="M4654.8,744c-71-39.8-62.5-96.6,19.9-150.6c88.1-59.7,270-62.5,270-2.9c0,39.8-108,156.3-144.9,156.3c-11.4,0-36.9,5.7-59.7,14.2C4720.2,766.7,4680.4,761,4654.8,744z M4808.3,647.4c0-14.2-14.2-31.3-31.3-36.9c-17.1-5.7-31.3,11.4-31.3,36.9s14.2,42.6,31.3,36.9C4794.1,678.6,4808.3,661.6,4808.3,647.4z"/><path d="M4106.4,718.4c-31.3-11.4-88.1-56.8-125-96.6c-68.2-71-68.2-73.9-17.1-130.7c105.1-116.5,341-102.3,409.2,25.6C4433.2,624.6,4237.1,772.4,4106.4,718.4z M4220,562.1c0-79.6-82.4-71-93.8,8.5c-8.5,54,0,65.4,42.6,56.8C4197.3,621.8,4220,593.4,4220,562.1z"/><path d="M6834.4,1312.3c-255.8-48.3-508.7-144.9-591.1-221.6c-122.2-113.7-250.1-397.8-267.1-596.7c-42.6-446.1,227.3-909.3,628-1077c144.9-62.5,221.7-76.8,483.1-79.6c170.5-5.7,329.6,5.7,355.2,19.9c25.5,14.2,119.3,56.8,207.4,93.8c179,76.7,329.6,247.2,409.2,471.7c25.6,71,54,147.8,65.4,170.5c45.5,88.1-22.7,434.8-125,645.1C7780.6,1181.6,7323.1,1406.1,6834.4,1312.3z M7161.1,1175.9c-22.7-14.2-164.8-59.7-312.6-102.3c-147.8-42.6-304.1-96.6-346.7-119.4c-76.7-36.9-79.6-34.1-79.6,28.4c0,56.8,22.7,76.7,150.6,116.5c227.3,68.2,363.7,96.6,503,99.5C7161.1,1198.6,7189.6,1193,7161.1,1175.9z M7539.1,1116.2c68.2-31.3,164.8-93.8,216-136.4l93.8-79.6l-127.9,2.8c-136.4,2.9-204.6,45.5-309.7,193.2C7345.8,1187.3,7374.3,1193,7539.1,1116.2z M7218,1073.6c0-59.7-8.5-68.2-76.7-54c-59.7,11.4-167.6-28.4-429.1-156.3c-315.4-156.3-349.6-167.7-332.5-110.8c34.1,113.7,93.8,147.8,463.2,270c198.9,65.3,363.7,119.3,369.4,119.3C7215.1,1144.7,7218,1113.4,7218,1073.6z M7701.1,491.1c0-159.1-116.5-369.4-289.9-525.7C7260.6-171,7056-310.3,7081.6-259.1c5.7,14.2,45.4,96.6,88.1,184.7c90.9,190.4,122.2,338.2,147.8,750.2l22.7,312.6l179-198.9C7672.6,624.6,7701.1,576.3,7701.1,491.1z M6229.1,744c-28.4-85.3-82.4-204.6-116.5-267.1L6050,363.2l17.1,110.8c19.9,116.5,179,460.4,201.7,434.8C6277.4,903.1,6257.5,826.4,6229.1,744z M7189.6,832.1c0-79.6-5.7-85.2-56.8-56.8c-48.3,25.6-127.9,0-468.9-167.6c-227.3-108-412.1-187.6-412.1-173.3c0,51.1,807.1,483.1,900.8,483.1C7175.4,917.3,7189.6,883.2,7189.6,832.1z M7942.6,735.5c22.7-54,54-153.4,68.2-221.7l28.4-122.2l-125,142.1c-93.8,110.8-113.7,147.8-82.4,164.8c22.8,11.4,39.8,48.3,39.8,76.7C7871.6,860.5,7897.1,843.4,7942.6,735.5z M7158.3,627.5c0-36.9-8.6-48.3-17.1-28.4c-5.7,17.1-34.1,34.1-59.7,34.1c-42.6,0-42.6,5.7-5.7,28.4C7141.2,704.2,7161.1,695.7,7158.3,627.5z M7019.1,618.9c0-17.1-477.4-241.5-505.8-238.7c-22.7,0,454.7,250.1,485.9,250.1C7010.5,633.1,7019.1,627.5,7019.1,618.9z M7161.1,462.7c0-36.9-14.2-51.1-42.6-39.8c-45.4,19.9-54,48.3-22.7,76.7C7129.9,536.5,7161.1,519.5,7161.1,462.7z M7942.6,206.9c-31.3-48.3-62.5-31.3-99.5,54c-51.1,125-5.7,170.5,62.5,62.5C7936.9,275.1,7954,224,7942.6,206.9z M7132.7,275.1c0-56.8-11.4-71.1-45.5-56.8c-25.6,8.5-85.3-5.7-136.4-36.9c-139.2-85.2-750.2-338.1-772.9-318.3c-11.3,11.4,889.5,474.6,949.1,485.9C7129.9,349,7132.7,314.9,7132.7,275.1z M6305.8,280.8c-25.6-25.6-227.3-159.1-238.7-159.1c-31.3,0,116.5,127.9,150.6,130.7c22.7,5.7,45.5,14.2,56.8,22.7c8.5,8.5,22.7,17.1,28.4,17.1C6311.5,292.2,6311.5,286.5,6305.8,280.8z M6561.6,224c-28.4-25.6-196.1-102.3-196.1-90.9c0,19.9,147.8,99.5,181.9,102.3C6561.6,235.3,6567.2,229.6,6561.6,224z M7811.9,81.9c28.4-34.1,25.5-59.7-8.6-122.2l-42.6-79.6l-2.8,76.8c0,39.8-8.5,93.7-17.1,119.3C7718.1,133,7766.4,135.9,7811.9,81.9z M7075.9,36.4c-17-31.3-48.3-56.8-73.9-56.8c-22.8,0-167.7-62.5-324-142.1c-156.3-76.7-301.2-142.1-326.8-142.1c-93.8,0-34.1,54,147.8,130.7c105.1,45.5,272.8,122.2,375.1,173.4C7098.6,107.4,7115.7,110.3,7075.9,36.4z M7019.1-68.7c0-14.2-25.6-65.4-56.8-116.5c-48.3-76.8-65.3-88.1-110.8-65.4c-36.9,22.8-93.8,8.6-227.3-54c-309.7-147.7-244.4-59.7,73.9,99.5C7053.2-28.9,7019.1-43.1,7019.1-68.7z M7644.2-148.3c0-14.2-14.2-8.5-28.4,14.2c-14.2,22.8-28.4,56.8-28.4,71c0,17.1,14.2,8.5,28.4-14.2C7630-100,7644.2-131.3,7644.2-148.3z M7544.8-304.6c45.5-102.3,48.3-122.1,11.4-144.9c-85.2-54-108-28.4-102.3,127.9c2.9,85.2,14.2,147.8,22.7,144.9C7485.1-182.4,7516.4-242.1,7544.8-304.6z M7331.6-401.2c0-110.8-8.5-125-73.9-139.2c-56.8-11.4-68.2-2.9-51.2,34.1c8.5,25.6,22.8,71,31.3,102.3c25.6,108,34.1,127.9,65.4,127.9C7317.4-276.2,7331.6-333,7331.6-401.2z M6805.9-389.9c-28.4-31.3-85.2-56.8-125-56.8c-71,2.9-71,5.7,25.6,56.8C6834.4-318.8,6871.3-318.8,6805.9-389.9z M6905.4-531.9c0-14.2-11.4-28.4-28.4-28.4c-14.2,0-28.4,14.2-28.4,28.4c0,17.1,14.2,28.4,28.4,28.4C6894-503.5,6905.4-514.9,6905.4-531.9z"/><path d="M2458.2,189.8c-389.3-59.7-636.5-247.2-775.8-588.2c-82.4-196.1-85.2-216-62.5-440.4c42.6-400.7,244.4-719,574-903.7c139.2-76.7,173.3-82.4,434.8-82.4c238.7,0,304.1,11.4,400.7,62.5c440.5,235.8,656.4,952,431.9,1435c-88.1,187.5-258.6,363.7-437.6,451.8C2895.8,184.2,2634.4,215.4,2458.2,189.8z M2983.9,8c173.3-88.1,301.2-216,360.9-360.9c65.4-156.3,102.3-321.1,71-321.1c-11.4,0-79.6,37-153.5,79.6c-147.8,88.1-213.1,159.1-400.7,454.7C2731,62,2731,64.8,2802.1,64.8C2839,64.8,2921.4,39.2,2983.9,8z M2625.9,8c39.8-14.2,85.2-51.1,102.3-85.3c31.3-56.8,31.3-56.8-133.6,2.9c-90.9,34.1-176.2,71-190.4,85.2C2367.3,44.9,2534.9,44.9,2625.9,8z M2483.8-131.3c159.1-59.7,312.6-116.5,341-127.9c28.4-11.3,48.3-25.6,39.8-31.3c-8.5-8.5-159.1,31.3-338.1,88.1c-179,56.8-341,108-360.9,113.7c-37,11.3-22.7,68.2,17,68.2C2191.1-20.4,2327.5-68.7,2483.8-131.3z M2688.4-304.6c71-31.2,153.4-56.8,181.9-56.8c31.3,0,68.2-28.4,88.1-62.5c28.4-54,25.6-56.8-19.9-39.8c-341,136.4-659.3,218.8-795.7,210.3c-162-8.5-201.8,17-133.6,96.6c36.9,42.6,59.7,39.8,295.5-22.8C2444-219.4,2617.3-276.2,2688.4-304.6z M2540.6-441c170.5-54,210.3-76.8,170.5-93.8c-39.8-17-22.7-22.7,59.7-25.6c62.5-2.8,139.2-14.2,170.5-25.5c31.3-14.2,79.6-11.3,108,2.9c25.6,14.2,62.5,17,79.6,5.7c73.9-45.5-71-68.2-449-68.2h-400.7l-116.5,130.7c-65.4,73.9-116.5,144.9-116.5,162C2046.2-313.1,2279.2-352.9,2540.6-441z M2191.1-747.9c68.2-62.5,170.5-150.6,224.5-196.1c54-42.6,187.6-161.9,295.5-264.2l198.9-184.7l-164.8,17c-431.9,42.6-772.9,383.6-829.8,815.5l-19.9,156.3l88.1-113.7C2029.1-580.2,2122.9-682.5,2191.1-747.9z M1764.8-736.5l-25.6-93.8l-2.8,102.3c-2.9,56.8,5.7,110.8,17.1,122.2C1790.4-571.7,1796.1-634.2,1764.8-736.5z M3396-730.9c17.1-28.4-76.7-51.1-497.3-113.7l-326.8-51.1l-65.4,62.5l-65.4,62.5l170.5-11.3c264.3-19.9,656.4,19.9,656.4,65.3C3268.1-676.9,3370.4-691.1,3396-730.9z M3421.5-878.6c-8.5-37-34.1-82.4-51.1-105.1c-39.8-51.1-443.3-238.7-466-218.8c-25.6,28.4,82.4,96.6,267.1,164.8c96.6,36.9,176.2,79.5,179,93.7c2.8,54-190.4,22.8-375.1-65.3l-184.7-85.3l-62.5,65.3c-54,56.8-54,65.4-14.2,82.4c25.6,8.6,88.1,17,136.4,19.9c51.2,0,193.2,25.6,318.3,51.2c125,28.4,238.7,54,250.1,56.8C3432.9-818.9,3432.9-844.5,3421.5-878.6z M1838.7-1029.2c-28.4-85.3-42.6-99.5-56.8-59.7c-11.4,25.6,0,79.6,25.6,119.4C1872.8-872.9,1884.2-898.5,1838.7-1029.2z M1963.8-1248l-8.5-147.8l-54,65.4c-45.5,56.8-48.3,71-11.4,108c22.7,22.7,42.6,59.7,42.6,82.4s8.5,39.8,22.7,39.8C1966.6-1100.3,1969.4-1165.6,1963.8-1248z M3324.9-1205.4c0-14.2-25.6-65.4-56.8-116.5c-56.8-91-56.8-91-144.9-48.3c-99.5,54-93.8,68.2,68.2,133.6C3336.3-1179.8,3324.9-1179.8,3324.9-1205.4z M2321.8-1478.2c19.9-65.4,42.6-142.1,51.1-167.7c17.1-45.4,11.4-48.3-73.9-17c-54,17-79.6,36.9-59.7,45.4c39.8,11.4,45.5,116.5,5.7,216c-19.9,54-17.1,68.2,8.5,56.8C2273.5-1350.3,2304.8-1412.9,2321.8-1478.2z M2122.9-1532.2c-8.5-19.9-14.2-5.7-14.2,34.1c0,39.8,5.7,54,14.2,37C2128.6-1481,2128.6-1515.1,2122.9-1532.2z M2637.2-1606.1c11.4-159.1-56.8-162-119.3-5.7c-62.5,153.5-56.8,167.7,34.1,144.9C2617.3-1483.9,2628.7-1503.8,2637.2-1606.1z M2870.2-1682.8c0-8.5-28.4-14.2-62.5-8.5c-51.1,5.7-68.2,31.3-73.9,105.1l-11.4,96.6l73.9-85.3C2836.1-1623.1,2870.2-1671.4,2870.2-1682.8z M2983.9-1569.2c39.8-54,39.8-54-5.7-17c-28.4,19.9-51.1,51.2-51.1,68.2s2.8,22.7,8.5,17C2938.4-1506.6,2961.2-1537.9,2983.9-1569.2z"/><path d="M2267.8-495c34.1-5.7,85.2-5.7,113.7,0c25.6,8.5-2.8,14.2-65.4,11.4C2253.6-483.6,2230.9-489.3,2267.8-495z"/><path d="M2523.6-523.4c17.1-5.7,51.2-5.7,71,0c17.1,8.5,2.8,14.2-36.9,14.2C2517.9-509.2,2503.7-514.9,2523.6-523.4z"/><path d="M4654.8-560.4c-306.9-139.2-562.6-451.8-682-832.6c-68.2-218.8-65.4-349.6,11.4-551.3c162-431.9,633.7-656.4,1142.3-537.1c545.6,127.9,991.7,582.5,994.6,1014.5c2.9,315.4-270,707.5-619.5,883.8c-144.9,73.9-213.1,90.9-414.9,99.5C4865.1-475.1,4828.1-480.8,4654.8-560.4z M5237.4-620c56.8-14.2,105.1-36.9,105.1-51.1c0-31.3-198.9-136.4-329.6-170.5c-181.9-48.3-619.5-73.9-596.7-34.1c34.1,51.2,278.5,210.3,386.5,247.2C4924.8-583.1,5095.3-580.2,5237.4-620z M5606.8-804.7c8.5-11.4-25.6-102.3-76.7-207.4c-54-102.3-130.7-270-173.3-372.3c-73.9-184.7-133.6-255.7-204.6-255.7c-25.6,0,45.4,159.1,181.9,426.2c122.2,235.9,227.3,426.2,238.7,426.2C5581.2-787.7,5595.4-796.2,5606.8-804.7z M5370.9-836c0-14.2-14.2-42.6-28.4-65.4c-22.7-34.1-28.4-31.3-28.4,22.7c0,34.1,14.2,62.5,28.4,62.5C5359.5-816.1,5370.9-824.6,5370.9-836z M5146.4-955.3c-48.3-88.1-272.8-270-557-451.8c-278.5-179-406.3-210.3-147.8-37c360.9,244.4,528.5,386.4,531.4,449c0,39.8,22.7,65.3,65.4,73.9C5169.1-895.7,5174.8-898.5,5146.4-955.3z M5740.3-966.7c0-8.5-48.3-113.7-102.3-230.2c-51.1-116.5-96.6-238.7-96.6-267.1c0-51.2-76.7-108-105.2-79.6c-19.9,19.9,252.9,616.6,281.3,608.1C5731.8-941.1,5743.2-955.3,5740.3-966.7z M4759.9-1032.1c-170.5-144.9-477.4-352.4-494.4-335.3c-8.5,11.3-2.8,25.6,17.1,31.3c48.3,17,386.5,275.6,431.9,329.6c19.9,28.4,59.7,48.3,85.3,48.3C4831-961,4819.6-980.9,4759.9-1032.1z M5228.8-1128.7c-34.1-65.3-71-107.9-85.3-99.5c-22.7,14.2,105.1,213.1,136.4,213.1C5282.8-1015,5260.1-1066.2,5228.8-1128.7z M5800-1225.3c-31.3-71-65.4-130.7-73.9-130.7c-8.5,0,5.7,48.3,31.2,108c25.6,56.8,51.1,122.2,59.7,142.1c8.5,19.9,19.9,31.3,25.6,25.6C5851.1-1086.1,5831.3-1151.4,5800-1225.3z M5910.8-1316.2c-51.2-59.7-68.2-28.4-25.6,51.2c22.7,39.8,39.8,51.1,48.3,28.4C5939.2-1256.6,5927.9-1290.6,5910.8-1316.2z M4893.5-1432.7c-31.3-45.4-82.4-105.1-116.5-133.6c-73.9-65.4-76.7-93.8-8.5-108c25.6-5.7-39.8-19.9-147.8-31.3c-127.9-14.2-207.5-11.4-227.3,8.5c-19.9,19.9-17.1,28.4,14.2,28.4c19.9,0,147.8,71,281.3,156.3c133.6,85.3,244.4,156.3,250.1,156.3C4944.7-1356,4924.8-1390.1,4893.5-1432.7z M5996.1-1489.6c0-108-5.7-113.7-312.6-312.6c-318.3-204.6-395-230.2-716.1-224.5c-224.5,2.8-255.7,11.4-366.6,88.1c-65.4,48.3-125,99.5-130.7,116.5c-5.7,19.9,76.7,37,241.5,48.3c417.7,31.2,801.4,127.9,1099.7,284.2C5990.4-1395.8,5996.1-1395.8,5996.1-1489.6z M4995.8-1574.8c-19.9-45.5-34.1-82.4-36.9-82.4c0-2.8-31.3-14.2-71-25.6c-68.2-19.9-65.4-14.2,25.6,82.4c54,56.8,102.3,102.3,108,102.3C5024.2-1498.1,5012.9-1532.2,4995.8-1574.8z M4228.5-1876c-31.2-147.8-56.8-164.8-99.5-68.2c-22.7,48.3-17,88.1,25.6,173.3C4228.5-1626,4271.2-1685.7,4228.5-1876z M4376.3-2109.1c0-102.3-22.7-122.2-76.7-68.2c-19.9,19.9-19.9,48.3,2.8,99.5C4347.9-1981.2,4376.3-1992.5,4376.3-2109.1z M5652.2-2035.2c22.8-14.2,25.6-31.3,8.6-42.6c-14.2-8.5-42.6,2.9-62.5,25.6C5558.5-2006.8,5589.7-1995.4,5652.2-2035.2z M4632.1-2151.7c0-59.7,93.8-170.5,142.1-170.5c19.9,0,19.9,19.9,0,59.7c-17.1,31.3-28.4,79.6-22.7,105.2c5.7,31.2,34.1,5.7,85.2-79.6l73.9-127.9l-79.6-8.5c-45.5-5.7-133.6,5.7-196.1,22.7l-116.5,31.3v142.1c0,133.6,2.8,139.2,56.8,110.8C4606.5-2083.5,4632.1-2123.3,4632.1-2151.7z M5507.3-2111.9c73.9-19.9,82.4-54,17.1-79.6c-48.3-19.9-153.4,28.4-153.4,68.2C5370.9-2092,5413.5-2089.1,5507.3-2111.9z M5078.2-2265.4c34.1-133.5,5.7-147.7-71.1-34.1c-96.6,139.2-99.5,147.7-28.4,147.7C5032.8-2151.7,5052.6-2174.4,5078.2-2265.4z M5342.5-2293.8c-56.8-36.9-113.7-36.9-113.7,0c0,17.1,19.9,28.4,45.4,28.4c31.3,0,39.8,14.2,28.4,51.2c-19.9,45.5-17,45.5,31.3-2.8C5379.4-2259.6,5379.4-2271,5342.5-2293.8z"/><path d="M8468.3-389.9c0-65.3,125-156.3,184.7-130.7c59.7,22.7,54,122.2-11.4,159.1C8550.7-313.1,8468.3-327.3,8468.3-389.9z"/><path d="M8667.2-662.6c0-31.3,65.4-139.3,96.6-159.1c59.7-42.6,102.3-22.8,102.3,48.3c0,39.8-22.7,82.4-54,99.5C8752.5-642.8,8667.2-634.2,8667.2-662.6z"/><path d="M8780.9-1057.7c0-48.3,85.3-99.5,167.7-99.5c85.2,0,73.9,82.4-14.2,113.7C8832-1003.7,8780.9-1009.3,8780.9-1057.7z"/><path d="M9056.5-1844.8c62.5-108,150.6-142.1,150.6-56.8c0,65.4-85.2,147.7-153.4,147.7C9005.4-1753.9,9005.4-1759.5,9056.5-1844.8z"/><path d="M1941-3362.2c-11.4-34.1,8.5-71,59.7-116.5c93.8-79.6,170.5-76.7,181.9,8.5c8.5,68.2-34.1,110.8-144.9,136.4C1978-3319.6,1955.2-3328.1,1941-3362.2z"/><path d="M7971-3399.2c-34.1-59.7,42.6-144.9,130.7-144.9c76.7,0,85.2,8.5,76.7,79.6c-5.7,62.5-22.7,79.6-99.5,85.3C8030.7-3373.6,7982.4-3385,7971-3399.2z"/><path d="M7630-3515.7c-48.3-79.5,82.4-221.6,173.3-187.5c59.7,22.8,48.3,153.5-14.2,187.5C7718.1-3478.7,7652.7-3478.7,7630-3515.7z"/><path d="M1165.3-3546.9c0-36.9,130.7-167.7,170.5-167.7c39.8,0,36.9,99.5-5.7,133.6C1276.1-3538.4,1165.3-3515.7,1165.3-3546.9z"/><path d="M2256.5-3615.1c-22.7-56.8,11.4-99.5,82.4-99.5c88.1,0,144.9,42.6,125,96.6C2441.2-3561.1,2279.2-3555.4,2256.5-3615.1z"/><path d="M1477.8-3751.5c0-59.7,79.6-153.5,142.1-170.5c96.6-25.6,76.7,110.8-28.4,164.8C1492.1-3706.1,1477.8-3703.2,1477.8-3751.5z"/><path d="M2591.8-3848.1c11.4-65.4,221.6-90.9,221.6-28.4c0,48.3-59.7,76.7-162,76.7C2600.3-3799.8,2583.2-3814.1,2591.8-3848.1z"/><path d="M6996.3-3919.2c-79.6-79.6,5.7-190.4,105.1-136.4c59.7,31.3,85.2,142.1,34.1,142.1c-14.2,0-42.6,5.7-65.3,14.2C7050.3-3890.8,7016.2-3899.3,6996.3-3919.2z"/><path d="M2944.1-3956.1c36.9-90.9,238.7-139.2,238.7-56.8c0,51.2-88.1,99.5-181.9,99.5C2947-3913.5,2932.8-3924.9,2944.1-3956.1z"/><path d="M1773.4-3984.6c-25.6-65.3,42.6-127.9,133.6-127.9c68.2,0,82.4,11.4,82.4,68.2C1989.3-3947.6,1804.6-3899.3,1773.4-3984.6z"/><path d="M3324.9-4055.6c0-36.9,173.3-144.9,210.3-133.5c68.2,22.7,42.6,82.4-51.1,119.3C3364.7-4018.6,3324.9-4015.8,3324.9-4055.6z"/><path d="M6607-4067c-59.7-42.6-28.4-125,59.7-147.7c99.5-25.6,159.2,5.7,147.8,79.6C6803.1-4061.3,6675.2-4015.8,6607-4067z"/><path d="M5376.6-4263c-25.6-28.4-19.9-54,11.3-102.3c62.5-88.1,193.2-73.9,204.6,22.8c5.7,37-5.7,79.6-28.4,90.9C5507.3-4214.7,5410.7-4220.4,5376.6-4263z"/><path d="M4532.6-4282.9c-11.4-17,2.8-62.5,28.4-102.3c56.8-88.1,193.2-88.1,210.3,0C4788.4-4288.6,4583.8-4200.5,4532.6-4282.9z"/><path d="M4907.7-4302.8c-31.3-48.3,65.4-150.6,139.2-150.6c73.9,0,122.2,71,79.6,113.7C5086.7-4300,4924.8-4274.4,4907.7-4302.8z"/><path d="M2898.7-4362.5c0-56.8,110.8-176.2,164.8-176.2c59.7,0,36.9,136.4-28.4,181.9C2949.8-4297.1,2898.7-4300,2898.7-4362.5z"/><path d="M6138.2-4425c54-105.1,108-139.2,150.6-96.6c31.2,31.3-42.6,147.8-113.7,179.1C6075.6-4297.1,6075.6-4300,6138.2-4425z"/><path d="M3268.1-4461.9c0-59.7,62.5-105.2,147.8-105.2c116.5,0,110.8,99.5-8.5,125C3282.3-4419.3,3268.1-4419.3,3268.1-4461.9z"/><path d="M5726.1-4481.8c-28.4-48.3,11.3-133.5,71-150.6c73.9-19.9,150.6,42.6,139.2,110.8C5922.2-4461.9,5760.2-4427.8,5726.1-4481.8z"/><path d="M3734.1-4524.5c-22.7-59.7,31.3-99.5,139.2-99.5c56.8,0,76.7,14.2,76.7,56.8c0,31.2-17.1,56.8-34.1,56.8c-19.9,0-65.4,8.6-99.5,17C3771.1-4481.8,3745.5-4490.3,3734.1-4524.5z"/><path d="M4944.7-4533c0-71,96.6-156.3,162-142.1c122.2,22.7,39.8,193.2-93.8,193.2C4964.6-4481.8,4944.7-4498.9,4944.7-4533z"/><path d="M5305.6-4498.9c-31.3-31.3,48.3-156.3,110.8-170.5c82.4-19.9,125,5.7,125,76.7C5541.4-4518.7,5359.5-4447.7,5305.6-4498.9z"/><path d="M4109.2-4533c-28.4-45.5,96.6-176.2,170.5-176.2c71,0,90.9,62.6,45.5,133.6C4296.8-4527.3,4131.9-4496.1,4109.2-4533z"/></g></g>
</svg>