<svg width="512" height="512" viewBox="0 0 512 512" fill="none" xmlns="http://www.w3.org/2000/svg">
<path d="M256 0C114.833 0 0 114.833 0 256C0 397.167 114.833 512 256 512C397.167 512 512 397.147 512 256C512 114.853 397.167 0 256 0ZM256 472.341C136.725 472.341 39.659 375.295 39.659 256C39.659 136.705 136.725 39.659 256 39.659C375.275 39.659 472.341 136.705 472.341 256C472.341 375.295 375.295 472.341 256 472.341Z" fill="#4A3DD9"/>
<path d="M355.149 234.386H275.831V155.068C275.831 144.122 266.967 135.238 256.001 135.238C245.035 135.238 236.171 144.122 236.171 155.068V234.386H156.853C145.887 234.386 137.023 243.27 137.023 254.216C137.023 265.162 145.887 274.046 156.853 274.046H236.171V353.364C236.171 364.31 245.035 373.194 256.001 373.194C266.967 373.194 275.831 364.31 275.831 353.364V274.046H355.149C366.115 274.046 374.979 265.162 374.979 254.216C374.979 243.27 366.115 234.386 355.149 234.386Z" fill="#4A3DD9"/>
</svg>
