<?xml version="1.0" encoding="utf-8"?>
<!-- Svg Vector Icons : http://www.onlinewebfonts.com/icon -->
<!DOCTYPE svg PUBLIC "-//W3C//DTD SVG 1.1//EN" "http://www.w3.org/Graphics/SVG/1.1/DTD/svg11.dtd">
<svg version="1.1" xmlns="http://www.w3.org/2000/svg" xmlns:xlink="http://www.w3.org/1999/xlink" x="0px" y="0px" viewBox="0 0 1000 1000" enable-background="new 0 0 1000 1000" xml:space="preserve">
<metadata> Svg Vector Icons : http://www.onlinewebfonts.com/icon </metadata>
<g><g id="_x34_1-Hollywood_star"><path d="M989.2,388.6c-2.2-6.6-8.1-11.3-15.1-11.7l-334.1-22l-124.2-311c-2.6-6.5-8.9-10.7-15.8-10.7c-7,0-13.2,4.2-15.8,10.7L360,354.8l-334.1,22c-7,0.5-12.9,5.1-15.1,11.7c-2.2,6.6-0.1,13.9,5.3,18.4l257.4,214.2l-82.3,324.5c-1.7,6.8,0.9,13.9,6.5,18c5.6,4.1,13.2,4.3,19.1,0.6L500,785.6l283.2,178.6c2.8,1.8,5.9,2.6,9.1,2.6c3.5,0,7-1.1,10-3.3c5.6-4.1,8.2-11.2,6.5-18l-82.3-324.5l257.4-214.2C989.2,402.5,991.3,395.2,989.2,388.6z M500,667.3c-65.3,0-118.4-53.1-118.4-118.4c0-65.3,53.1-118.4,118.4-118.4c65.3,0,118.4,53.1,118.4,118.4C618.4,614.2,565.3,667.3,500,667.3z"/><path d="M427.6,531.3c-0.8-0.6-1.9-0.7-2.8-0.2c-0.9,0.5-1.5,1.4-1.5,2.4v53.3c0,1,0.6,1.9,1.5,2.4c0.4,0.2,0.8,0.3,1.2,0.3c0.6,0,1.1-0.2,1.6-0.5l22.6-16.9h6.7v-23.8h-6.7L427.6,531.3z"/><path d="M550.3,482.6c-12.3,0-22.7,8.5-25.5,19.9h-14.8c-2.9-11.4-13.2-19.9-25.5-19.9c-14.5,0-26.3,11.8-26.3,26.3c0,6.4,2.3,12.3,6.1,16.8h106.5c3.8-4.6,6.1-10.4,6.1-16.8C576.7,494.4,564.9,482.6,550.3,482.6z"/><path d="M570.9,534.7H463.8c-1.1,0-2,0.9-2,2v46.8c0,1.1,0.9,2,2,2h32.6l15.8,13.1h10.3v16.6h27.3v-16.6h10.1l11-13.1c1.1,0,2-0.9,2-2v-46.8C572.9,535.6,572,534.7,570.9,534.7z"/></g><g></g><g></g><g></g><g></g><g></g><g></g><g></g><g></g><g></g><g></g><g></g><g></g><g></g><g></g><g></g></g>
</svg>